<svg xmlns="http://www.w3.org/2000/svg" viewBox="0 0 200 200" width="200" height="200"><rect x="16" y="16" width="36" height="36" rx="4" fill="#FFFFFF" fill-opacity="0.18"></rect><rect x="60" y="16" width="36" height="36" rx="4" fill="#FFFFFF" fill-opacity="0.18"></rect><rect x="104" y="16" width="36" height="36" rx="4" fill="#FFFFFF"></rect><rect x="148" y="16" width="36" height="36" rx="4" fill="#FFFFFF" fill-opacity="0.18"></rect><rect x="16" y="60" width="36" height="36" rx="4" fill="#FFFFFF"></rect><rect x="60" y="60" width="36" height="36" rx="4" fill="#FFFFFF"></rect><rect x="104" y="60" width="36" height="36" rx="4" fill="#FFFFFF"></rect><rect x="148" y="60" width="36" height="36" rx="4" fill="#FFFFFF"></rect><rect x="16" y="104" width="36" height="36" rx="4" fill="#FFFFFF" fill-opacity="0.18"></rect><rect x="60" y="104" width="36" height="36" rx="4" fill="#FFFFFF" fill-opacity="0.18"></rect><rect x="104" y="104" width="36" height="36" rx="4" fill="#FFFFFF"></rect><rect x="148" y="104" width="36" height="36" rx="4" fill="#FFFFFF" fill-opacity="0.18"></rect><rect x="16" y="148" width="36" height="36" rx="4" fill="#FFFFFF" fill-opacity="0.18"></rect><rect x="60" y="148" width="36" height="36" rx="4" fill="#FFFFFF" fill-opacity="0.18"></rect><rect x="104" y="148" width="36" height="36" rx="4" fill="#FFFFFF"></rect><rect x="148" y="148" width="36" height="36" rx="4" fill="#FFFFFF" fill-opacity="0.18"></rect></svg>