<svg xmlns="http://www.w3.org/2000/svg" viewBox="0 0 200 200" width="200" height="200"><rect x="16" y="16" width="36" height="36" rx="4" fill="#E7E3F3"></rect><rect x="60" y="16" width="36" height="36" rx="4" fill="#E7E3F3"></rect><rect x="104" y="16" width="36" height="36" rx="4" fill="#110750"></rect><rect x="148" y="16" width="36" height="36" rx="4" fill="#E7E3F3"></rect><rect x="16" y="60" width="36" height="36" rx="4" fill="#E80288"></rect><rect x="60" y="60" width="36" height="36" rx="4" fill="#E80288"></rect><rect x="104" y="60" width="36" height="36" rx="4" fill="#FFCA00"></rect><rect x="148" y="60" width="36" height="36" rx="4" fill="#E80288"></rect><rect x="16" y="104" width="36" height="36" rx="4" fill="#E7E3F3"></rect><rect x="60" y="104" width="36" height="36" rx="4" fill="#E7E3F3"></rect><rect x="104" y="104" width="36" height="36" rx="4" fill="#110750"></rect><rect x="148" y="104" width="36" height="36" rx="4" fill="#E7E3F3"></rect><rect x="16" y="148" width="36" height="36" rx="4" fill="#E7E3F3"></rect><rect x="60" y="148" width="36" height="36" rx="4" fill="#E7E3F3"></rect><rect x="104" y="148" width="36" height="36" rx="4" fill="#110750"></rect><rect x="148" y="148" width="36" height="36" rx="4" fill="#E7E3F3"></rect></svg>