<svg width="1425" height="1380" xmlns="http://www.w3.org/2000/svg" xmlns:xlink="http://www.w3.org/1999/xlink" xml:space="preserve" overflow="hidden"><g transform="translate(-1494 -540)"><g><rect x="0" y="0" width="162.402" height="162.992" fill="#FFCA00" fill-opacity="1" transform="matrix(-0.834265 0.551364 0.551364 0.834265 2296.66 1196.61)"/><path d="M2630.51 1897.36 2329 1460" stroke="#E80288" stroke-width="69.8958" stroke-linecap="butt" stroke-linejoin="miter" stroke-miterlimit="8" stroke-opacity="1" fill="none" fill-rule="evenodd"/><path d="M2150.45 1206.22 1720 579" stroke="#E80288" stroke-width="69.8958" stroke-linecap="butt" stroke-linejoin="miter" stroke-miterlimit="8" stroke-opacity="1" fill="none" fill-rule="evenodd"/><path d="M2764.73 1898.38 2420 1398" stroke="#E80288" stroke-width="24.0625" stroke-linecap="butt" stroke-linejoin="miter" stroke-miterlimit="8" stroke-opacity="1" fill="none" fill-rule="evenodd"/><path d="M2247.81 1142.84 1856 576" stroke="#E80288" stroke-width="24.0625" stroke-linecap="butt" stroke-linejoin="miter" stroke-miterlimit="8" stroke-opacity="1" fill="none" fill-rule="evenodd"/><path d="M0 0 514.315 357.845" stroke="#110750" stroke-width="69.8958" stroke-linecap="butt" stroke-linejoin="miter" stroke-miterlimit="8" stroke-opacity="1" fill="none" fill-rule="evenodd" transform="matrix(-1 0 0 1 2895.31 826)"/><path d="M0 0 548.535 381.466" stroke="#110750" stroke-width="69.8958" stroke-linecap="butt" stroke-linejoin="miter" stroke-miterlimit="8" stroke-opacity="1" fill="none" fill-rule="evenodd" transform="matrix(-1 0 0 1 2129.54 1356)"/><path d="M0 0 673.842 458.74" stroke="#110750" stroke-width="24.0625" stroke-linecap="butt" stroke-linejoin="miter" stroke-miterlimit="8" stroke-opacity="1" fill="none" fill-rule="evenodd" transform="matrix(-1 0 0 1 2180.84 1432)"/><path d="M0 0 391.632 271.391" stroke="#110750" stroke-width="24.0625" stroke-linecap="butt" stroke-linejoin="miter" stroke-miterlimit="8" stroke-opacity="1" fill="none" fill-rule="evenodd" transform="matrix(-1 0 0 1 2822.63 988)"/></g></g></svg>